<?xml version="1.0" encoding="utf-8"?>
<!-- Generator: Adobe Illustrator 15.1.0, SVG Export Plug-In . SVG Version: 6.00 Build 0)  -->
<!DOCTYPE svg PUBLIC "-//W3C//DTD SVG 1.1//EN" "http://www.w3.org/Graphics/SVG/1.1/DTD/svg11.dtd">
<svg version="1.1" id="Layer_1" xmlns="http://www.w3.org/2000/svg" xmlns:xlink="http://www.w3.org/1999/xlink" x="0px" y="0px"
	 width="253.998px" height="25.571px" viewBox="0 0 253.998 25.571" enable-background="new 0 0 253.998 25.571"
	 xml:space="preserve">
<g>
	<g>
		<path fill="#F37B21" d="M126.62,20.898c-5.452,0-9.068-4.116-9.068-10.292c0-6.23,3.7-10.43,9.207-10.43
			c3.81,0,7.675,2.392,8.121,6.425h-1.168c-0.695-3.282-3.395-5.34-7.01-5.34c-4.756,0-7.954,3.755-7.954,9.317
			c0,5.563,3.143,9.262,7.899,9.262c4.338,0,6.924-3.059,7.397-7.064h1.143C134.823,17.616,131.347,20.898,126.62,20.898z"/>
		<path fill="#F37B21" d="M150.815,13.417c0,4.562-2.588,7.453-6.592,7.453c-4.033,0-6.619-2.947-6.619-7.537
			c0-4.534,2.643-7.538,6.646-7.538C148.229,5.795,150.815,8.771,150.815,13.417z M138.744,13.333c0,4.006,2.144,6.564,5.508,6.564
			c3.282,0,5.396-2.559,5.396-6.48c0-4.034-2.143-6.647-5.424-6.647S138.744,9.411,138.744,13.333z"/>
		<path fill="#F37B21" d="M155.069,9.105c0.724-1.835,2.281-3.282,4.646-3.282c2.143,0,3.561,1.057,4.145,3.06
			c0.89-1.891,2.336-3.06,4.617-3.06c2.922,0,4.506,1.919,4.506,4.589v10.042h-1.112v-9.625c0-2.308-0.974-3.977-3.616-3.977
			c-1.195,0-2.195,0.389-2.92,1.14c-0.975,1.001-1.279,2.336-1.279,3.699v8.761h-1.111v-9.401c0-1.196-0.084-1.835-0.418-2.503
			c-0.502-1.057-1.641-1.696-3.031-1.696c-2.727,0-4.367,2.086-4.367,5.507v8.095h-1.111V6.213h1.057v2.892H155.069z"/>
		<path fill="#F37B21" d="M177.903,9.105c0.724-1.835,2.281-3.282,4.646-3.282c2.142,0,3.562,1.057,4.146,3.06
			c0.89-1.891,2.336-3.06,4.617-3.06c2.92,0,4.506,1.919,4.506,4.589v10.042h-1.113v-9.625c0-2.308-0.975-3.977-3.616-3.977
			c-1.194,0-2.194,0.389-2.92,1.14c-0.974,1.001-1.278,2.336-1.278,3.699v8.761h-1.113v-9.401c0-1.196-0.082-1.835-0.418-2.503
			c-0.5-1.057-1.639-1.696-3.029-1.696c-2.727,0-4.367,2.086-4.367,5.507v8.095h-1.113V6.213h1.059v2.892H177.903z"/>
		<path fill="#F37B21" d="M210.778,20.454h-1.059V17.45c-0.916,2.086-2.529,3.42-5.117,3.42c-3.393,0-5.033-2.197-5.033-5.479V6.213
			h1.111v8.928c0,2.531,0.92,4.756,4.146,4.756c3.422,0,4.84-2.977,4.84-5.953V6.213h1.112V20.454z"/>
		<path fill="#F37B21" d="M215.84,9.355c1.001-2.281,2.615-3.532,5.257-3.532c3.199,0,5.008,2.03,5.008,5.285v9.346h-1.113v-8.791
			c0-2.725-0.891-4.839-4.145-4.839c-1.836,0-3.311,0.863-4.172,2.337c-0.557,0.973-0.807,2.058-0.807,3.921v7.372h-1.113V6.213
			h1.085V9.355z"/>
		<path fill="#F37B21" d="M231.192,3.459h-1.112V0.65h1.112V3.459z M231.192,20.454h-1.112V6.213h1.112V20.454z"/>
		<path fill="#F37B21" d="M240.481,7.186h-3.061v9.65c0,1.475-0.055,2.67,1.893,2.67c0.277,0,0.64-0.027,1.168-0.11v1.028
			c-0.611,0.084-0.861,0.113-1.334,0.113c-3.004,0-2.838-1.865-2.838-4.146V7.186h-2.643V6.213h2.643V1.734h1.111v4.479h3.061V7.186
			z"/>
		<path fill="#F37B21" d="M247.853,21.928c-0.834,2.169-1.334,3.643-3.895,3.643c-0.25,0-0.834-0.027-1.085-0.056v-1.001
			c0.444,0.084,0.642,0.084,0.918,0.084c1.335,0,2.03-0.529,2.586-1.864c0,0,0.668-1.528,0.974-2.308l-6.035-14.212h1.252
			l4.701,11.154c0.223,0.527,0.277,0.694,0.639,1.779c0.334-1.001,0.475-1.445,0.669-1.919l4.228-11.014h1.195L247.853,21.928z"/>
	</g>
	<g>
		<path fill="#154989" d="M16.345,1.669H9.15v18.82H7.194V1.669H0V0h16.345V1.669z"/>
		<path fill="#154989" d="M20.679,20.952c-3.896,0-6.429-2.859-6.429-7.3c0-4.44,2.642-7.546,6.401-7.546
			c4.141,0,6.157,3.433,6.157,7.301v0.49H15.993c0,2.941,1.362,5.666,4.74,5.666c2.234,0,3.732-1.253,4.277-3.678h1.662
			C26.073,18.991,23.975,20.952,20.679,20.952z M20.598,7.522c-3.051,0-4.277,2.369-4.604,4.984h9.099
			C24.901,9.402,23.212,7.522,20.598,7.522z"/>
		<path fill="#154989" d="M36.314,8.013c-0.191,0-0.354-0.028-0.463-0.028c-2.098,0-3.922,1.308-4.467,3.323
			c-0.218,0.845-0.327,1.661-0.327,3.46v5.721h-1.688V6.487h1.607v3.351c1.172-2.562,2.506-3.515,5.339-3.568L36.314,8.013
			L36.314,8.013z"/>
		<path fill="#154989" d="M46.292,8.163c-0.191,0-0.354-0.027-0.463-0.027c-2.098,0-3.922,1.307-4.468,3.323
			c-0.218,0.845-0.327,1.662-0.327,3.459v5.721h-1.689V6.637h1.607v3.351c1.171-2.562,2.506-3.514,5.339-3.567L46.292,8.163
			L46.292,8.163z"/>
		<path fill="#154989" d="M58.671,6.542h1.686v13.947h-1.686V6.542z"/>
		<path fill="#154989" d="M71.36,10.573c-0.163-2.125-1.525-3.051-3.786-3.051c-2.015,0-3.27,0.898-3.27,2.315
			c0,1.743,1.363,2.042,4.005,2.642c2.288,0.517,5.203,1.227,5.203,4.141c0,2.562-2.234,4.305-5.558,4.305
			c-3.596,0-5.665-1.799-5.747-5.014h1.661c0,2.344,1.553,3.596,4.141,3.596c2.289,0,3.813-1.088,3.813-2.723
			c0-1.961-2.371-2.398-3.842-2.752c-2.287-0.545-5.394-0.899-5.394-3.977c0-2.452,1.961-3.95,5.149-3.95
			c3.079,0,5.284,1.471,5.284,4.468H71.36z"/>
		<path fill="#154989" d="M88.631,13.542c0,4.522-2.534,7.355-6.592,7.355c-4.086,0-6.674-2.887-6.674-7.41
			c0-4.495,2.615-7.41,6.674-7.41C86.07,6.078,88.631,8.965,88.631,13.542z M77.108,13.489c0,3.678,1.879,5.992,4.958,5.992
			c2.969,0,4.849-2.314,4.849-5.965c0-3.651-1.907-5.993-4.903-5.993C79.042,7.522,77.108,9.864,77.108,13.489z"/>
		<path fill="#154989" d="M60.356,13.542c0,4.522-2.534,7.355-6.593,7.355c-4.086,0-6.674-2.887-6.674-7.41
			c0-4.495,2.615-7.41,6.674-7.41C57.795,6.078,60.356,8.965,60.356,13.542z M48.833,13.489c0,3.678,1.879,5.992,4.958,5.992
			c2.969,0,4.849-2.314,4.849-5.965c0-3.651-1.907-5.993-4.903-5.993C50.767,7.522,48.833,9.864,48.833,13.489z"/>
		<path fill="#154989" d="M97.88,2.052c-0.586-0.083-0.782-0.083-1.174-0.083c-2.095,0-2.067,1.063-2.067,2.738v1.424h3.019v1.425
			h-3.019v12.935H92.88V7.556h-2.458V6.131h2.458V4.483c0-2.626,0.894-4.022,3.659-4.022c0.503,0,0.727,0.028,1.341,0.111V2.052z"/>
		<path fill="#154989" d="M105.191,7.556h-2.962v9.106c0,1.451-0.056,2.401,1.815,2.401c0.309,0,0.643-0.028,1.146-0.083v1.508
			c-0.643,0.084-0.922,0.111-1.537,0.111c-1.257,0-2.653-0.251-2.988-1.646c-0.141-0.588-0.168-1.006-0.168-3.158V7.556h-1.844
			V6.131h1.844V1.745h1.731v4.386h2.962L105.191,7.556L105.191,7.556z"/>
	</g>
	<circle fill="#F47B20" cx="108.767" cy="6.824" r="1.258"/>
</g>
</svg>
